<svg id="0403adc8-9b11-48c6-98c5-accad3fee80e" data-name="Layer 1" xmlns="http://www.w3.org/2000/svg" viewBox="0 0 58 58"><defs><style>.\31 2f6aad2-0b17-4282-833a-2c7fd2606e7f{fill:#3bbebb;}</style></defs><title>rapid-tech-icon</title><path class="12f6aad2-0b17-4282-833a-2c7fd2606e7f" d="M32.6,46c-.34.09-.7.18-1,.25a1.69,1.69,0,0,0-1.32,2l0,.15a1.69,1.69,0,0,0,2,1.16c.42-.08.84-.18,1.25-.29A1.69,1.69,0,1,0,32.6,46Z"/><path class="12f6aad2-0b17-4282-833a-2c7fd2606e7f" d="M20.84,45.1c-.33-.15-.65-.3-1-.47a1.69,1.69,0,0,0-1.56,3c.38.2.76.38,1.15.56a1.69,1.69,0,1,0,1.38-3.08Z"/><path class="12f6aad2-0b17-4282-833a-2c7fd2606e7f" d="M26.64,46.59c-.35,0-.71-.07-1.07-.12a1.69,1.69,0,1,0-.47,3.34c.42.06.85.11,1.27.14a1.69,1.69,0,1,0,.27-3.36Zm0,0"/><path class="12f6aad2-0b17-4282-833a-2c7fd2606e7f" d="M38,43.53c-.29.2-.6.4-.9.58A1.69,1.69,0,0,0,38.88,47c.36-.22.73-.45,1.07-.69A1.69,1.69,0,0,0,38,43.53Z"/><path class="12f6aad2-0b17-4282-833a-2c7fd2606e7f" d="M44.67,39a1.69,1.69,0,0,0-2.35.38c-.21.29-.43.58-.65.85a1.69,1.69,0,1,0,2.61,2.14c.27-.33.53-.67.78-1A1.69,1.69,0,0,0,44.67,39Z"/><path class="12f6aad2-0b17-4282-833a-2c7fd2606e7f" d="M47,32.82A1.69,1.69,0,0,0,44.94,34c-.1.34-.21.69-.33,1a1.69,1.69,0,0,0,3.18,1.14c.14-.4.28-.81.39-1.22A1.69,1.69,0,0,0,47,32.82Z"/><path class="12f6aad2-0b17-4282-833a-2c7fd2606e7f" d="M50.2,21.83,48,22.52a20.83,20.83,0,0,0-10-12q-.72-.39-1.47-.72h0l-.06,0a20.81,20.81,0,0,0-13.85-1l-.11,0L22,8.94l-.76.24-.09,0A20.79,20.79,0,0,0,11,16.83l0,0c-.25.35-.48.7-.71,1.06l0,.07q-.34.55-.64,1.12A20.83,20.83,0,0,0,7.21,31.63v0A21.18,21.18,0,0,0,8,35.09,20.8,20.8,0,0,0,12.38,43a1.69,1.69,0,0,0,2.52-2.25A17.4,17.4,0,0,1,12.34,37l0,0c-.16-.32-.31-.65-.46-1h0a17.91,17.91,0,0,1-.67-1.86,17.63,17.63,0,0,1,6.46-19.29l.26-.19a17.62,17.62,0,0,1,10.65-3.2h.09l.34,0h.14a17.68,17.68,0,0,1,14.06,8.59h0l.13.22,0,0a17.55,17.55,0,0,1,1.42,3.21l-2.22.69c-.62.19-.68.63-.14,1l4.82,3.13a.94.94,0,0,0,1.43-.45l2.2-5.31c.25-.59-.05-.93-.67-.73Z"/><path class="12f6aad2-0b17-4282-833a-2c7fd2606e7f" d="M32.25,22.14V25H27.69v2.65a4.66,4.66,0,0,1,3.66,1.13,4.26,4.26,0,0,1,1.38,3.26,4.17,4.17,0,0,1-1.4,3.3,5.49,5.49,0,0,1-3.76,1.23,7,7,0,0,1-3.45-.77V33.22a6.29,6.29,0,0,0,3,.92,2.35,2.35,0,0,0,1.62-.57,1.83,1.83,0,0,0,.64-1.42,1.75,1.75,0,0,0-.78-1.5,3.67,3.67,0,0,0-2.15-.55,8.26,8.26,0,0,0-1.62.17V22.14Z"/></svg>