<?xml version="1.0" encoding="utf-8"?>
<!-- Generator: Adobe Illustrator 21.0.2, SVG Export Plug-In . SVG Version: 6.00 Build 0)  -->
<svg version="1.1" id="_x30_403adc8-9b11-48c6-98c5-accad3fee80e"
	 xmlns="http://www.w3.org/2000/svg" xmlns:xlink="http://www.w3.org/1999/xlink" x="0px" y="0px" viewBox="0 0 58 58"
	 style="enable-background:new 0 0 58 58;" xml:space="preserve">
<style type="text/css">
	.st0{fill:#3FBFBB;}
	.st1{opacity:0;}
</style>
<title>rapid-tech-icon</title>
<path class="st0" d="M32.6,46c-0.3,0.1-0.7,0.2-1,0.2c-0.9,0.2-1.5,1.1-1.3,2c0,0,0,0,0,0v0.2c0.3,0.9,1.1,1.4,2,1.2
	c0.4-0.1,0.8-0.2,1.2-0.3c0.9-0.3,1.4-1.2,1.2-2.1C34.4,46.3,33.5,45.7,32.6,46z"/>
<path class="st0" d="M20.8,45.1c-0.3-0.2-0.6-0.3-1-0.5c-0.8-0.4-1.8-0.1-2.3,0.7c-0.4,0.8-0.1,1.8,0.7,2.3c0.4,0.2,0.8,0.4,1.1,0.6
	c0.8,0.4,1.8,0.1,2.3-0.7c0.4-0.8,0.1-1.8-0.7-2.3C20.9,45.2,20.9,45.1,20.8,45.1L20.8,45.1z"/>
<path class="st0" d="M26.6,46.6c-0.4,0-0.7-0.1-1.1-0.1c-0.9-0.2-1.8,0.4-2,1.3s0.4,1.8,1.3,2c0.1,0,0.1,0,0.2,0
	c0.4,0.1,0.9,0.1,1.3,0.1c0.9,0.1,1.8-0.5,1.9-1.4s-0.5-1.8-1.4-1.9C26.8,46.6,26.7,46.6,26.6,46.6z"/>
<path class="st0" d="M38,43.5c-0.3,0.2-0.6,0.4-0.9,0.6c-0.8,0.5-1,1.5-0.6,2.3c0.5,0.8,1.5,1,2.3,0.6l0,0c0.4-0.2,0.7-0.5,1.1-0.7
	c0.8-0.5,1-1.6,0.4-2.4S38.8,43,38,43.5L38,43.5z"/>
<path class="st0" d="M44.7,39c-0.8-0.5-1.8-0.4-2.3,0.4c-0.2,0.3-0.4,0.6-0.7,0.8c-0.6,0.7-0.6,1.8,0.1,2.4c0.7,0.6,1.8,0.6,2.4-0.1
	c0,0,0.1-0.1,0.1-0.1c0.3-0.3,0.5-0.7,0.8-1C45.6,40.6,45.4,39.6,44.7,39C44.7,39,44.7,39,44.7,39z"/>
<path class="st0" d="M47,32.8c-0.9-0.2-1.8,0.3-2.1,1.2c-0.1,0.3-0.2,0.7-0.3,1c-0.3,0.9,0.2,1.8,1.1,2.1c0.8,0.3,1.8-0.2,2.1-1
	c0.1-0.4,0.3-0.8,0.4-1.2C48.4,34,47.9,33.1,47,32.8C47,32.8,47,32.8,47,32.8z"/>
<g>
	<path class="st0" d="M50.2,21.8L48,22.5c-1.7-5.1-5.2-9.4-10-12c-0.5-0.3-1-0.5-1.5-0.7l0,0h-0.1c-4.4-1.9-9.3-2.3-13.9-1h-0.1
		L22,8.9l-0.8,0.2h-0.1c-4.1,1.4-7.6,4.1-10.1,7.7l0,0c-0.2,0.4-0.5,0.7-0.7,1.1V18c-0.2,0.4-0.4,0.7-0.6,1.1
		c-2.1,3.8-3,8.2-2.4,12.5l0,0C7.4,32.8,7.6,34,8,35.1c0.9,2.9,2.4,5.6,4.4,7.9c0.6,0.7,1.7,0.7,2.4,0.1c0.6-0.6,0.7-1.6,0.1-2.3
		c-1-1.1-1.9-2.4-2.6-3.8l0,0c-0.2-0.3-0.3-0.7-0.5-1l0,0c-0.3-0.6-0.5-1.2-0.7-1.9c-2.1-7.1,0.4-14.9,6.5-19.3l0.3-0.2
		c3.1-2.2,6.8-3.3,10.6-3.2h0.1H29h0.1C35,11.8,40.2,15,43.2,20l0,0l0.1,0.2l0,0c0.6,1,1.1,2.1,1.4,3.2l-2.2,0.7
		c-0.6,0.2-0.7,0.6-0.1,1l4.8,3.1c0.4,0.3,1,0.2,1.3-0.2c0.1-0.1,0.1-0.1,0.1-0.2l2.2-5.3C51.1,21.9,50.8,21.6,50.2,21.8L50.2,21.8z
		"/>
	<circle class="st1" cx="28.3" cy="29" r="20.6"/>
</g>
<path class="st0" d="M32.2,22.1V25h-4.6v2.6c1.3-0.2,2.7,0.2,3.7,1.1c0.9,0.8,1.4,2,1.4,3.3c0.1,1.3-0.5,2.5-1.4,3.3
	c-1.1,0.9-2.4,1.3-3.8,1.2c-1.2,0-2.4-0.2-3.5-0.8v-2.6c0.9,0.6,1.9,0.9,3,0.9c0.6,0,1.2-0.2,1.6-0.6c0.4-0.4,0.6-0.9,0.6-1.4
	c0-0.6-0.3-1.2-0.8-1.5c-0.6-0.4-1.4-0.6-2.1-0.5c-0.5,0-1.1,0.1-1.6,0.2v-8.1H32.2z"/>
</svg>
