<?xml version="1.0" encoding="utf-8"?>
<!-- Generator: Adobe Illustrator 21.0.2, SVG Export Plug-In . SVG Version: 6.00 Build 0)  -->
<svg version="1.1" id="圖層_1" xmlns="http://www.w3.org/2000/svg" xmlns:xlink="http://www.w3.org/1999/xlink" x="0px" y="0px"
	 viewBox="0 0 58 58" style="enable-background:new 0 0 58 58;" xml:space="preserve">
<style type="text/css">
	.st0{fill:#3FBFBB;}
</style>
<title>rapid-tech-icon</title>
<g id="_x34_0b4934e-09a0-43e6-9584-487a162b4109">
	<path class="st0" d="M47,24.9c0-0.2,0-0.4,0-0.5c-0.1-6.6-5.5-11.9-12.1-11.9c-4.3,0-8.2,2.3-10.3,6c-0.5-0.1-1-0.2-1.6-0.2
		c-3.8,0-7.2,2.4-8.5,6c-0.2,0-0.4,0-0.5,0c-5,0.2-9,4.4-8.8,9.4c0.2,4.8,4,8.7,8.8,8.8h30c5-0.1,9.1-4.2,9-9.2
		C53,29.6,50.6,26.2,47,24.9z M44,39.6H14c-3.4-0.1-6-2.9-5.9-6.3c0.1-3.2,2.6-5.7,5.8-5.9c0.1,0,0.3,0,0.4,0l2.3,0.1l0.8-2.2
		c0.8-2.4,3.1-4,5.6-4c0.4,0,0.7,0,1,0.1l2.1,0.4l1-1.9c2.5-4.3,8-5.8,12.3-3.3c2.7,1.6,4.4,4.4,4.5,7.6c0,0.2,0,0.4,0,0.5L43.9,27
		l2.1,0.7c3.2,1.1,4.8,4.6,3.7,7.8C48.8,38,46.6,39.6,44,39.6z"/>
</g>
</svg>
