<?xml version="1.0" encoding="utf-8"?>
<!-- Generator: Adobe Illustrator 21.0.2, SVG Export Plug-In . SVG Version: 6.00 Build 0)  -->
<svg version="1.1" id="圖層_1" xmlns="http://www.w3.org/2000/svg" xmlns:xlink="http://www.w3.org/1999/xlink" x="0px" y="0px"
	 viewBox="0 0 58 58" style="enable-background:new 0 0 58 58;" xml:space="preserve">
<style type="text/css">
	.st0{fill:#3FBFBB;}
	.st1{fill:#3FBFBB;stroke:#FFFFFF;stroke-miterlimit:10;}
</style>
<title>rapid-tech-icon</title>
<g id="a56c2210-9d43-43f7-81a3-bf81abf59f30">
	<path class="st0" d="M39.9,25.2l-9-9.1c-0.8-0.8-2.1-0.8-2.9,0c-0.6,0.7-0.8,1.7-0.3,2.5L7.8,38.4c-2.7,2.7-2.7,7.1,0,9.8
		c2.7,2.7,7.1,2.7,9.8,0l19.8-19.8c1,0.6,2.3,0.2,2.8-0.8C40.7,26.9,40.5,25.9,39.9,25.2z M33.9,27.2l-1.8-1.8
		c-0.4-0.4-1.1-0.4-1.6,0c0,0,0,0,0,0c-0.4,0.4-0.4,1.1,0,1.6c0,0,0,0,0,0l1.8,1.8l-3.5,3.5L27,30.4c-0.4-0.4-1.1-0.5-1.6,0
		s-0.5,1.1,0,1.6l1.8,1.8l-12,12c-1.4,1.4-3.6,1.4-5,0s-1.4-3.6,0-5L30,21.1l5,5L33.9,27.2z"/>
	<circle class="st0" cx="49.9" cy="11.1" r="2.3"/>
	<circle class="st0" cx="39.5" cy="11.9" r="4.2"/>
	<circle class="st1" cx="42.4" cy="18" r="3.4"/>
</g>
</svg>
