<svg xmlns="http://www.w3.org/2000/svg" viewBox="0 0 58 58"><defs><style>.\38 b424b9a-5b68-4cba-8f7b-9255e52c85f8{fill:#3bbebb;}</style></defs><title>rapid-tech-icon</title><g id="40b4934e-09a0-43e6-9584-487a162b4109" data-name="Layer 3"><path class="8b424b9a-5b68-4cba-8f7b-9255e52c85f8" d="M47,26.28c0-.18,0-.35,0-.53a12,12,0,0,0-22.42-5.84A9.1,9.1,0,0,0,23,19.75a9,9,0,0,0-8.46,6.05c-.18,0-.36-.05-.54-.05A9.13,9.13,0,0,0,14,44H44a9.13,9.13,0,0,0,3-17.72ZM44,41H14a6.1,6.1,0,0,1-.09-12.19c.14,0,.28,0,.43,0l2.28.13.75-2.17a6,6,0,0,1,5.63-4,6.65,6.65,0,0,1,1.05.11l2.1.38,1.05-1.86A9,9,0,0,1,44,25.64c0,.18,0,.36,0,.55l-.07,2.2,2.08.73A6.12,6.12,0,0,1,44,41Z"/></g></svg>