<svg xmlns="http://www.w3.org/2000/svg" viewBox="0 0 58 58"><defs><style>.\31 6e6becd-6f8f-443b-a695-bf1f8dac46ba{fill:#3bbebb;}</style></defs><title>rapid-tech-icon</title><g id="a56c2210-9d43-43f7-81a3-bf81abf59f30" data-name="Layer 2"><path class="16e6becd-6f8f-443b-a695-bf1f8dac46ba" d="M39.9,25.2l-9-9.06a2.08,2.08,0,0,0-3.27,2.5L7.78,38.43a7,7,0,0,0,0,9.83,7,7,0,0,0,9.83,0L37.4,28.47a2.08,2.08,0,0,0,2.5-3.27Zm-6,1.95-1.8-1.81a1.12,1.12,0,0,0-1.59,0,1.11,1.11,0,0,0,0,1.58l1.81,1.81-3.52,3.52L27,30.44A1.12,1.12,0,1,0,25.38,32l1.8,1.81-12,12a3.52,3.52,0,0,1-5-5L30,21.12l5,5Z"/><path class="16e6becd-6f8f-443b-a695-bf1f8dac46ba" d="M51.53,9.46a2.34,2.34,0,1,0,0,3.3,2.34,2.34,0,0,0,0-3.3Z"/><path class="16e6becd-6f8f-443b-a695-bf1f8dac46ba" d="M42.48,8.92a4.07,4.07,0,0,0-2.42-1.17,3.14,3.14,0,0,0-1.06,0,4,4,0,0,0-2.41,1.17,4.17,4.17,0,0,0,0,5.9A4.12,4.12,0,0,0,38.94,16a3.8,3.8,0,0,1,.61-.79,3.93,3.93,0,0,1,3.5-1.09A4.2,4.2,0,0,0,42.48,8.92Z"/><path class="16e6becd-6f8f-443b-a695-bf1f8dac46ba" d="M40.1,15.71a3.23,3.23,0,1,0,4.57,0,3.24,3.24,0,0,0-4.57,0Z"/></g></svg>