<svg xmlns="http://www.w3.org/2000/svg" viewBox="0 0 60 60"><defs><style>.e2fd2bfd-7140-4187-9915-b6fac97c6559{fill:#3bbebb;}.d47077ed-b845-44bd-8798-d9076525678b{fill:#fff;}</style></defs><title>tech_icon</title><g id="bef57b7c-4564-4ca0-a355-f3b75d20b91c" data-name="ok_arrow"><path id="99fbf372-cb42-4de2-acd6-6fc30fd2aeff" data-name="ok_arrow_dash_6" class="e2fd2bfd-7140-4187-9915-b6fac97c6559" d="M21.84,45.1c-.33-.15-.65-.3-1-.47a1.69,1.69,0,0,0-1.56,3c.38.2.76.38,1.15.56a1.69,1.69,0,1,0,1.38-3.08Z"/><path id="6240ca66-26f5-4627-a762-5c2a3b9484a3" data-name="ok_arrow_dash_5" class="e2fd2bfd-7140-4187-9915-b6fac97c6559" d="M27.64,46.59c-.35,0-.71-.07-1.07-.12a1.69,1.69,0,1,0-.47,3.34c.42.06.85.11,1.27.14a1.69,1.69,0,1,0,.27-3.36Zm0,0"/><path id="5e5d337d-e2e1-4c3d-a72c-0e7d55b14089" data-name="ok_arrow_dash_4" class="e2fd2bfd-7140-4187-9915-b6fac97c6559" d="M33.6,46c-.34.09-.7.18-1,.25a1.69,1.69,0,0,0-1.32,2l0,.15a1.69,1.69,0,0,0,2,1.16c.42-.08.84-.18,1.25-.29A1.69,1.69,0,1,0,33.6,46Z"/><path id="573ae72a-24f9-4cd5-9ded-6824c4b2f756" data-name="ok_arrow_dash_3" class="e2fd2bfd-7140-4187-9915-b6fac97c6559" d="M39,43.53c-.29.2-.6.4-.9.58A1.69,1.69,0,0,0,39.88,47c.36-.22.73-.45,1.07-.69A1.69,1.69,0,0,0,39,43.53Z"/><path id="d697afbe-9c66-4f8a-a666-32bc9121feeb" data-name="ok_arrow_dash_2" class="e2fd2bfd-7140-4187-9915-b6fac97c6559" d="M45.67,39a1.69,1.69,0,0,0-2.35.38c-.21.29-.43.58-.65.85a1.69,1.69,0,1,0,2.61,2.14c.27-.33.53-.67.78-1A1.69,1.69,0,0,0,45.67,39Z"/><path id="9bb69c52-8ca1-4c72-9953-84442638dc57" data-name="ok_arrow_dash_1" class="e2fd2bfd-7140-4187-9915-b6fac97c6559" d="M48,32.82A1.69,1.69,0,0,0,45.94,34c-.1.34-.21.69-.33,1a1.69,1.69,0,0,0,3.18,1.14c.14-.4.28-.81.39-1.22A1.69,1.69,0,0,0,48,32.82Z"/><path id="72fbebaf-9539-4174-86eb-2ca939a0ea72" data-name="ok_arrow_pointer" class="e2fd2bfd-7140-4187-9915-b6fac97c6559" d="M51.2,21.83,49,22.52a20.83,20.83,0,0,0-10-12q-.72-.39-1.47-.72h0l-.06,0a20.81,20.81,0,0,0-13.85-1l-.11,0L23,8.94l-.76.24-.09,0A20.79,20.79,0,0,0,12,16.83l0,0c-.25.35-.48.7-.71,1.06l0,.07q-.34.55-.64,1.12A20.83,20.83,0,0,0,8.21,31.63v0A21.18,21.18,0,0,0,9,35.09,20.8,20.8,0,0,0,13.38,43a1.69,1.69,0,0,0,2.52-2.25A17.4,17.4,0,0,1,13.34,37l0,0c-.16-.32-.31-.65-.46-1h0a17.91,17.91,0,0,1-.67-1.86,17.63,17.63,0,0,1,6.46-19.29l.26-.19a17.62,17.62,0,0,1,10.65-3.2h.09l.34,0h.14a17.68,17.68,0,0,1,14.06,8.59h0l.13.22,0,0a17.55,17.55,0,0,1,1.42,3.21l-2.22.69c-.62.19-.68.63-.14,1l4.82,3.13a.94.94,0,0,0,1.43-.45l2.2-5.31c.25-.59-.05-.93-.67-.73Z"/></g><g id="98c01abd-c0ea-4325-9410-2f1f2e95bd86" data-name="Layer 3"><g id="8e200adb-73f4-430d-a0ab-35842855495c" data-name="ok_num_1"><path class="e2fd2bfd-7140-4187-9915-b6fac97c6559" d="M28.14,25.09l-2.85,1.32V24l4.59-2.19H31.2V36.27H28.14Z"/></g><g id="5f914175-7c68-46ff-98ce-12385e41ce07" data-name="ok_num_2"><path class="e2fd2bfd-7140-4187-9915-b6fac97c6559" d="M24.49,34.51,28,30.68c1.32-1.45,2.4-2.49,2.4-4.44,0-1.38-.74-2-2.13-2a4.67,4.67,0,0,0-3.06,1.42V22.92A6.64,6.64,0,0,1,29,21.84c2.59,0,4.51,1.42,4.51,4s-1.42,4.55-3.32,6.4L28.7,33.68h5.48l-.42,2.59H25Z"/></g><g id="9e1b6dff-2516-4211-85c7-2ff89ffcbf15" data-name="ok_num_3"><path class="e2fd2bfd-7140-4187-9915-b6fac97c6559" d="M24.87,35.51V32.85A6.13,6.13,0,0,0,28.59,34C30,34,31,33.51,31,32.11s-1-2-2.36-2H26.49L27,27.73h2.19a2.08,2.08,0,0,0,1.38-2c0-1.17-.83-1.49-2-1.49a8.13,8.13,0,0,0-3.12.64V22.52A9.23,9.23,0,0,1,29,21.84c2.45,0,4.38,1,4.38,3.42a3.52,3.52,0,0,1-2,3.27A3.41,3.41,0,0,1,34,32.11c0,2.76-2.55,4.31-5.31,4.31A7.45,7.45,0,0,1,24.87,35.51Z"/></g><g id="4906d819-8e2b-4a1d-8303-1f6a7fbee528" data-name="ok_num_4"><path class="e2fd2bfd-7140-4187-9915-b6fac97c6559" d="M30.06,33.27h-5l-.85-2.15,6.46-9.29h2.44v8.95h1.72l-.51,2.49H33.12v3H30.06Zm0-2.49V25.9l-3.29,4.89Z"/></g><g id="df5bab33-0db7-4b6e-ae73-333e4a4485c8" data-name="ok_num_5"><path class="e2fd2bfd-7140-4187-9915-b6fac97c6559" d="M24.57,35.66V33a7.12,7.12,0,0,0,3.55,1c1.7,0,2.72-.6,2.72-2.3s-1.34-2.21-3-2.21H25.1V21.93h8.23l-.51,2.51H28.16V27h.38c3.23,0,5.27,1.3,5.27,4.53s-2.42,4.85-5.7,4.85A7.83,7.83,0,0,1,24.57,35.66Z"/></g><path id="2c47104e-ca74-4450-b6b8-a8c71a89531a" data-name="ok_bg" class="e2fd2bfd-7140-4187-9915-b6fac97c6559" d="M28.94,7.88A20.81,20.81,0,1,0,49.75,28.69,20.82,20.82,0,0,0,28.94,7.88Z"/><polygon id="8a73106e-1205-4f04-8fb9-05e454cf6964" data-name="ok_mark" class="d47077ed-b845-44bd-8798-d9076525678b" points="38.14 22 27.49 32.66 22.65 27.81 20.8 29.67 27.5 36.38 40 23.86 38.14 22"/></g></svg>