<svg xmlns="http://www.w3.org/2000/svg" viewBox="0 0 60 60"><defs><style>.\37 210a291-cc4b-4786-87c4-e5f4042d294f{fill:#3bbebb;}.\38 a187f26-48a7-45cb-bc3e-93a0c60ea504{fill:none;stroke:#3bbebb;stroke-linecap:round;stroke-miterlimit:10;stroke-width:2px;}</style></defs><title>tech_icon</title><g id="9e1fa314-2bca-4761-a990-ed76be7f2c24" data-name="Layer 3"><g id="bf2cc715-da13-47bf-bd5f-7e8c9d4c449f" data-name="cloud"><path class="7210a291-cc4b-4786-87c4-e5f4042d294f" d="M48.83,28.28c0-.18,0-.35,0-.53a12,12,0,0,0-22.42-5.84,9.1,9.1,0,0,0-1.58-.16,9,9,0,0,0-8.46,6.05c-.18,0-.36-.05-.54-.05a9.13,9.13,0,0,0,0,18.25h30a9.13,9.13,0,0,0,3-17.72ZM45.88,43h-30a6.1,6.1,0,0,1-.09-12.19c.14,0,.28,0,.43,0L18.5,31l.75-2.17a6,6,0,0,1,5.63-4,6.65,6.65,0,0,1,1.05.11l2.1.38,1.05-1.86a9,9,0,0,1,16.8,4.26c0,.18,0,.36,0,.55l-.07,2.2,2.08.73a6.12,6.12,0,0,1-2,11.88Z"/><path id="b4bbd0fe-bf0a-44ea-8146-dddebe289b40" data-name="cloud_wave_1" class="7210a291-cc4b-4786-87c4-e5f4042d294f" d="M23.92,19.22a6,6,0,0,0-9.25,6L16.59,24a4.21,4.21,0,0,1,.07-.62,4,4,0,0,1,4.74-3.08,4.47,4.47,0,0,1,.61.18Z"/><path id="1765b7fb-c8e1-4175-86ae-56b5e57b2962" data-name="cloud_wave_2" class="7210a291-cc4b-4786-87c4-e5f4042d294f" d="M12.75,22.53a8,8,0,0,1,9.49-6.16,7.9,7.9,0,0,1,3.46,1.71l1.74-1.13a9.86,9.86,0,0,0-4.79-2.53,10,10,0,0,0-11.51,13.1l1.73-1.12A8,8,0,0,1,12.75,22.53Z"/><path class="8a187f26-48a7-45cb-bc3e-93a0c60ea504" d="M46.56,33.31s2.75,1,2.87,3.31c.16,3-2.87,4.09-2.87,4.09"/></g></g></svg>