<svg xmlns="http://www.w3.org/2000/svg" viewBox="0 0 60 60"><defs><style>.a1416892-200c-476e-a42c-41906d85f1c9{fill:#3bbebb;}</style></defs><title>tech_icon</title><g id="b94b8a7a-fcb8-401e-93a9-999407a7309b" data-name="Layer 2"><path id="61055759-3be3-43d1-b329-b4d89e9a387b" data-name="tube_body" class="a1416892-200c-476e-a42c-41906d85f1c9" d="M40.53,27.2l-9-9.06a2.08,2.08,0,0,0-3.27,2.5L8.4,40.43a7,7,0,0,0,0,9.83,7,7,0,0,0,9.83,0L38,30.47a2.08,2.08,0,0,0,2.5-3.27Zm-6,1.95-1.8-1.81a1.12,1.12,0,0,0-1.59,0,1.11,1.11,0,0,0,0,1.58l1.81,1.81L29.4,34.25l-1.81-1.81A1.12,1.12,0,1,0,26,34l1.8,1.81-12,12a3.52,3.52,0,0,1-5-5L30.58,23.12l5,5Z"/><path id="912e6aa3-cfdb-4885-8fef-29801ab64e59" data-name="tube_bubble_3" class="a1416892-200c-476e-a42c-41906d85f1c9" d="M52.16,11.46a2.34,2.34,0,1,0,0,3.3,2.34,2.34,0,0,0,0-3.3Z"/><path id="ee313af6-3dde-4b01-ae37-fdf23eed754b" data-name="tube_bubble_1" class="a1416892-200c-476e-a42c-41906d85f1c9" d="M40.72,17.71a3.23,3.23,0,1,0,4.57,0,3.24,3.24,0,0,0-4.57,0Z"/><path id="79d1269b-3598-4c94-8b7f-2b646a0374ca" data-name="tube_bubble_2" class="a1416892-200c-476e-a42c-41906d85f1c9" d="M37.19,10.89a4.19,4.19,0,1,0,5.93,0,4.19,4.19,0,0,0-5.93,0Z"/></g></svg>