<svg xmlns="http://www.w3.org/2000/svg" viewBox="0 0 60 60"><defs><style>.\34 5ebd6d4-391c-42bb-affa-f193a15eccf8{fill:#3bbebb;}.\30 aa67e51-2f61-4f16-af5b-59f1df23c7bc{fill:none;stroke:#3bbebb;stroke-linecap:round;stroke-miterlimit:10;stroke-width:2px;}</style></defs><title>tech_icon</title><g id="013ec2b2-2cf1-4f1b-b53a-7c33d676975c" data-name="Layer 3"><g id="9c09d5b1-8803-43cb-a6c8-2667715c6ab2" data-name="cloud"><path class="45ebd6d4-391c-42bb-affa-f193a15eccf8" d="M48.83,28.28c0-.18,0-.35,0-.53a12,12,0,0,0-22.42-5.84,9.1,9.1,0,0,0-1.58-.16,9,9,0,0,0-8.46,6.05c-.18,0-.36-.05-.54-.05a9.13,9.13,0,0,0,0,18.25h30a9.13,9.13,0,0,0,3-17.72ZM45.88,43h-30a6.1,6.1,0,0,1-.09-12.19c.14,0,.28,0,.43,0L18.5,31l.75-2.17a6,6,0,0,1,5.63-4,6.65,6.65,0,0,1,1.05.11l2.1.38,1.05-1.86a9,9,0,0,1,16.8,4.26c0,.18,0,.36,0,.55l-.07,2.2,2.08.73a6.12,6.12,0,0,1-2,11.88Z"/><path id="e1e4bdee-67b6-4848-81e7-9c63d164c5bf" data-name="cloud_wave_1" class="45ebd6d4-391c-42bb-affa-f193a15eccf8" d="M23.92,19.22a6,6,0,0,0-9.25,6L16.59,24a4.21,4.21,0,0,1,.07-.62,4,4,0,0,1,4.74-3.08,4.47,4.47,0,0,1,.61.18Z"/><path id="070cad16-8a61-448e-95c6-e493a2601855" data-name="cloud_wave_2" class="45ebd6d4-391c-42bb-affa-f193a15eccf8" d="M12.75,22.53a8,8,0,0,1,9.49-6.16,7.9,7.9,0,0,1,3.46,1.71l1.74-1.13a9.86,9.86,0,0,0-4.79-2.53,10,10,0,0,0-11.51,13.1l1.73-1.12A8,8,0,0,1,12.75,22.53Z"/><path class="0aa67e51-2f61-4f16-af5b-59f1df23c7bc" d="M46.56,33.31s2.75,1,2.87,3.31c.16,3-2.87,4.09-2.87,4.09"/></g></g></svg>